<?xml version="1.0" standalone="no"?><!DOCTYPE svg PUBLIC "-//W3C//DTD SVG 1.1//EN" "http://www.w3.org/Graphics/SVG/1.1/DTD/svg11.dtd"><svg t="1557297264507" class="icon" viewBox="0 0 1024 1024" version="1.1" xmlns="http://www.w3.org/2000/svg" p-id="14207" xmlns:xlink="http://www.w3.org/1999/xlink" width="200" height="200"><defs></defs><path d="M640 512l356.571429 356.571429c36.571429 36.571429 36.571429 91.428571 0 128s-91.428571 36.571429-128 0L512 640l-356.571429 356.571429c-36.571429 36.571429-91.428571 36.571429-128 0s-36.571429-91.428571 0-128L384 512 27.428571 155.428571c-36.571429-36.571429-36.571429-91.428571 0-128s91.428571-36.571429 128 0L512 384 868.571429 27.428571c36.571429-36.571429 91.428571-36.571429 128 0s36.571429 91.428571 0 128L640 512z" fill="#ffffff" p-id="14208"></path></svg>